<svg width="50" height="50" viewBox="0 0 50 50" fill="none" xmlns="http://www.w3.org/2000/svg">
<rect x="0.5" y="0.5" width="49" height="49" stroke="white"/>
<path d="M16.6983 14C15.0668 14 14 15.0645 14 16.4636C14 17.8318 15.035 18.9266 16.6357 18.9266H16.6667C18.3302 18.9266 19.3654 17.8318 19.3654 16.4636C19.3343 15.0645 18.3302 14 16.6983 14V14Z" fill="white"/>
<path d="M14.2822 20.8735H19.052V35.1316H14.2822V20.8735Z" fill="white"/>
<path d="M30.7589 20.5388C28.1857 20.5388 26.4603 22.9412 26.4603 22.9412V20.8735H21.6904V35.1315H26.4601V27.1692C26.4601 26.743 26.4912 26.3174 26.6172 26.0126C26.962 25.1614 27.7467 24.2796 29.0644 24.2796C30.7904 24.2796 31.4807 25.5871 31.4807 27.5039V35.1315H36.25V26.9562C36.25 22.5767 33.8968 20.5388 30.7589 20.5388V20.5388Z" fill="white"/>
</svg>
