<svg width="50" height="50" viewBox="0 0 50 50" fill="none" xmlns="http://www.w3.org/2000/svg">
<rect x="0.5" y="0.5" width="49" height="49" stroke="white"/>
<path d="M25 14C18.9431 14 14 18.9436 14 25C14 31.0569 18.9436 36 25 36C31.0569 36 36 31.0564 36 25C36 18.9431 31.0564 14 25 14ZM32.4611 18.7914C33.8344 20.4389 34.6727 22.5465 34.7088 24.8453C32.9875 24.4427 31.0758 24.4156 29.1289 24.7705C28.6223 24.8629 28.1157 24.9802 27.6121 25.1212C27.4445 24.6653 27.2666 24.2132 27.0775 23.7655C26.8846 23.3088 26.6809 22.8597 26.4678 22.4171C28.7877 21.5311 31.3014 20.212 32.4611 18.7914ZM25 15.2891C27.5274 15.2891 29.8318 16.2597 31.5613 17.8474C30.8867 18.7674 28.9643 20.1067 25.88 21.2617C24.8032 19.2568 23.512 17.4143 22.0201 15.7574C22.9594 15.4536 23.961 15.2891 25 15.2891ZM20.7439 16.273C22.2655 17.9029 23.5743 19.723 24.6524 21.6893C21.4435 22.7278 18.1946 23.1515 15.5232 22.8778C16.1738 19.9709 18.131 17.5522 20.7439 16.273ZM15.2891 25C15.2891 24.7147 15.3024 24.4324 15.3264 24.1535C15.916 24.2158 16.5309 24.2472 17.1664 24.2472C19.6727 24.2472 22.4885 23.7651 25.2535 22.8494C25.6755 23.7131 26.0549 24.6017 26.3896 25.5122C25.3115 25.8998 24.2622 26.3926 23.277 26.9791C20.8612 28.4173 19.0939 30.2675 18.3609 32.08C16.4716 30.3071 15.2891 27.7891 15.2891 25ZM25 34.7109C22.925 34.7109 21 34.0565 19.4201 32.9432C19.9099 31.288 21.5668 29.4975 23.9365 28.0869C24.7714 27.5893 25.7477 27.1205 26.8103 26.7394C27.5635 29.107 28.025 31.606 28.1715 34.1786C27.1772 34.5232 26.1103 34.7109 25 34.7109ZM29.4288 33.641C29.25 31.1351 28.7834 28.6953 28.0345 26.3518C30.1227 25.7777 32.4422 25.5852 34.6418 26.1559C34.2525 29.4219 32.2364 32.196 29.4288 33.641Z" fill="white" stroke="white"/>
</svg>
